# xmcd
#
# Track frame offsets: 
#        150
#        17122
#        32980
#        60066
#
# Disc length: 4440 seconds
#
# Revision: 0
# Processed by: cddbd v1.5.2PL0 Copyright (c) Steve Scherf et al.
# Submitted via: ExactAudioCopy v0.99pb5
#
DISCID=26115604
DTITLE=Axel Coon - Close To You
DYEAR=2003
DGENRE=Trance
TTITLE0=Close To You (Single Version)
TTITLE1=Close To You (Pulsedriver's Short Edit)
TTITLE2=Closer (Single Version)
TTITLE3=Data
EXTD=
EXTT0=
EXTT1=
EXTT2=
EXTT3=
PLAYORDER=
